<svg width="10" height="32" viewBox="0 0 10 32" fill="none" xmlns="http://www.w3.org/2000/svg">
<path d="M5.59766 29.8105L0.992188 18.6309C0.792969 18.1621 0.617188 17.7109 0.464844 17.2773C0.3125 16.8438 0.236328 16.4043 0.236328 15.959C0.236328 15.5254 0.3125 15.0918 0.464844 14.6582C0.617188 14.2129 0.792969 13.7559 0.992188 13.2871L5.59766 2.125C5.76172 1.72656 6.00195 1.41016 6.31836 1.17578C6.64648 0.941406 7.01562 0.824219 7.42578 0.824219C8.08203 0.824219 8.62109 1.03516 9.04297 1.45703C9.46484 1.87891 9.67578 2.38867 9.67578 2.98633C9.67578 3.30273 9.59961 3.6543 9.44727 4.04102C9.30664 4.42773 9.16602 4.77344 9.02539 5.07812L4.15625 16.9609V14.957L9.02539 26.8398C9.16602 27.1562 9.30664 27.5078 9.44727 27.8945C9.59961 28.2695 9.67578 28.6211 9.67578 28.9492C9.67578 29.5469 9.46484 30.0566 9.04297 30.4785C8.62109 30.9004 8.08203 31.1113 7.42578 31.1113C7.01562 31.1113 6.64648 30.9883 6.31836 30.7422C6.00195 30.5078 5.76172 30.1973 5.59766 29.8105Z" fill="#858585"/>
</svg>
