<svg width="10" height="32" viewBox="0 0 10 32" fill="none" xmlns="http://www.w3.org/2000/svg">
<path d="M4.31445 29.8105C4.13867 30.1973 3.89258 30.5078 3.57617 30.7422C3.25977 30.9883 2.89648 31.1113 2.48633 31.1113C1.81836 31.1113 1.27344 30.9004 0.851562 30.4785C0.441406 30.0566 0.236328 29.5469 0.236328 28.9492C0.236328 28.6211 0.306641 28.2695 0.447266 27.8945C0.599609 27.5078 0.740234 27.1562 0.869141 26.8398L5.75586 14.957V16.9609L0.869141 5.07812C0.740234 4.77344 0.599609 4.42773 0.447266 4.04102C0.306641 3.6543 0.236328 3.30273 0.236328 2.98633C0.236328 2.38867 0.441406 1.87891 0.851562 1.45703C1.27344 1.03516 1.81836 0.824219 2.48633 0.824219C2.89648 0.824219 3.25977 0.941406 3.57617 1.17578C3.89258 1.41016 4.13867 1.72656 4.31445 2.125L8.91992 13.2871C9.11914 13.7559 9.29492 14.2129 9.44727 14.6582C9.59961 15.0918 9.67578 15.5254 9.67578 15.959C9.67578 16.4043 9.59961 16.8438 9.44727 17.2773C9.29492 17.7109 9.11914 18.1621 8.91992 18.6309L4.31445 29.8105Z" fill="#858585"/>
</svg>
