<?xml version="1.0" encoding="utf-8"?>
<!-- Generator: Adobe Illustrator 16.0.0, SVG Export Plug-In . SVG Version: 6.00 Build 0)  -->
<!DOCTYPE svg PUBLIC "-//W3C//DTD SVG 1.1//EN" "http://www.w3.org/Graphics/SVG/1.1/DTD/svg11.dtd">
<svg version="1.1" id="Layer_1" xmlns="http://www.w3.org/2000/svg" xmlns:xlink="http://www.w3.org/1999/xlink" x="0px" y="0px"
	 width="155.297px" height="58.279px" viewBox="0 7.42 155.297 58.279" enable-background="new 0 7.42 155.297 58.279"
	 xml:space="preserve">
<g>
	<g>
		<polygon fill="#2CA0DA" points="39.184,57.219 39.184,57.219 39.184,57.219 		"/>
		<path fill="#2CA0DA" d="M47.126,9.438V50.39h0.001c0,3.731,2.993,6.762,6.708,6.826c0.042,0,0.083,0,0.12,0V9.438H47.126z"/>
	</g>
</g>
<g>
	<g>
		<polygon fill="#2CA0DA" points="55.248,57.138 55.248,57.138 55.248,57.138 		"/>
		<path fill="#2CA0DA" d="M56.409,9.358V50.31h0.002c0,3.731,2.993,6.761,6.708,6.826c0.042,0,0.083,0,0.12,0V9.358H56.409z"/>
	</g>
</g>
<path fill="none" d="M104.451,36.236c-0.605-0.188-1.238-0.283-1.899-0.283c-1.625,0-3.089,0.548-4.393,1.644
	c-1.285,1.077-2.154,2.466-2.607,4.167h14.03C108.806,38.853,107.096,37.011,104.451,36.236z"/>
<g>
	<g>
		<path fill="#2CA0DA" d="M115.295,54.48c0.045-0.032,0.089-0.064,0.134-0.097C115.385,54.416,115.34,54.448,115.295,54.48z"/>
		<path fill="#2CA0DA" d="M115.571,54.278c0.043-0.032,0.086-0.064,0.129-0.097C115.658,54.214,115.615,54.246,115.571,54.278z"/>
		<path fill="#2CA0DA" d="M115.018,54.674c0.046-0.032,0.093-0.063,0.14-0.096C115.11,54.611,115.064,54.643,115.018,54.674z"/>
		<path fill="#2CA0DA" d="M114.737,54.861c0.049-0.032,0.097-0.063,0.145-0.096C114.834,54.798,114.786,54.83,114.737,54.861z"/>
		<path fill="#2CA0DA" d="M116.409,53.608c0.03-0.026,0.061-0.051,0.091-0.078C116.469,53.557,116.439,53.583,116.409,53.608z"/>
		<path fill="#2CA0DA" d="M114.456,55.041c0.05-0.031,0.101-0.063,0.151-0.095C114.557,54.978,114.506,55.01,114.456,55.041z"/>
		<path fill="#2CA0DA" d="M122.161,40.853c0-0.889-0.066-1.8-0.2-2.733c-0.533-3.377-1.945-6.299-4.232-8.765
			c-2.266-2.443-4.989-3.977-8.165-4.599c-0.956-0.178-1.899-0.267-2.833-0.267c-3.777,0-7.109,1.3-9.998,3.898
			c-2.844,2.6-4.577,5.844-5.199,9.731c-0.133,0.933-0.2,1.844-0.2,2.733s0.066,1.799,0.2,2.733c0.087,0.542,0.2,1.073,0.334,1.594
			c0.483,1.871,1.271,3.605,2.366,5.204c0.276,0.411,0.562,0.802,0.856,1.175c0.216,0.263,0.442,0.521,0.677,0.775
			c2.266,2.443,4.988,3.976,8.165,4.599c0.904,0.168,1.797,0.255,2.681,0.265c0.077,0.001,0.154,0.001,0.231,0.001
			c-0.027,0-0.052,0.001-0.079,0.001c1.26,0,2.469-0.146,3.629-0.435c-0.903,0.225-1.835,0.362-2.798,0.412
			c3.341-0.175,6.333-1.417,8.979-3.728c0.204-0.18,0.4-0.364,0.592-0.55c1.091-1.06,2.006-2.227,2.745-3.499
			c-2.312-2.1-5.671-2.316-8.197-0.742c-0.078,0.052-0.154,0.105-0.229,0.161c-1.384,1.027-2.913,1.554-4.589,1.581
			c-0.055-0.005-0.109-0.009-0.165-0.015c-1.955-0.044-3.688-0.7-5.198-1.966c-1.488-1.244-2.5-2.855-3.032-4.832h23.461
			C122.094,42.652,122.161,41.742,122.161,40.853z M98.5,38.12c0.533-2,1.555-3.632,3.066-4.899
			c1.533-1.289,3.254-1.933,5.165-1.933c0.777,0,1.522,0.111,2.233,0.333c3.109,0.911,5.121,3.078,6.032,6.499H98.5L98.5,38.12z"/>
		<path fill="#2CA0DA" d="M115.847,54.067c0.041-0.032,0.082-0.063,0.122-0.095C115.929,54.004,115.888,54.035,115.847,54.067z"/>
		<path fill="#2CA0DA" d="M116.125,53.846c0.037-0.03,0.074-0.06,0.111-0.09C116.198,53.786,116.161,53.815,116.125,53.846z"/>
		<path fill="#2CA0DA" d="M110.408,56.761c0.091-0.022,0.182-0.046,0.273-0.071C110.59,56.714,110.5,56.738,110.408,56.761z"/>
		<path fill="#2CA0DA" d="M114.171,55.213c0.053-0.031,0.106-0.063,0.16-0.096C114.277,55.149,114.225,55.182,114.171,55.213z"/>
		<path fill="#2CA0DA" d="M111.633,56.395c0.079-0.027,0.157-0.055,0.234-0.084C111.79,56.339,111.711,56.367,111.633,56.395z"/>
		<path fill="#2CA0DA" d="M111.93,56.287c0.078-0.029,0.156-0.059,0.234-0.09C112.086,56.228,112.008,56.258,111.93,56.287z"/>
		<path fill="#2CA0DA" d="M111.027,56.591c0.082-0.025,0.164-0.05,0.246-0.076C111.191,56.542,111.109,56.566,111.027,56.591z"/>
		<path fill="#2CA0DA" d="M110.719,56.68c0.085-0.024,0.171-0.048,0.256-0.073C110.89,56.632,110.805,56.656,110.719,56.68z"/>
		<path fill="#2CA0DA" d="M111.332,56.496c0.08-0.026,0.159-0.052,0.238-0.08C111.491,56.444,111.412,56.47,111.332,56.496z"/>
		<path fill="#2CA0DA" d="M113.885,55.378c0.058-0.032,0.115-0.065,0.172-0.099C114,55.313,113.942,55.346,113.885,55.378z"/>
		<path fill="#2CA0DA" d="M112.219,56.175c0.08-0.032,0.16-0.064,0.239-0.099C112.379,56.11,112.3,56.143,112.219,56.175z"/>
		<path fill="#2CA0DA" d="M113.596,55.536c0.064-0.035,0.128-0.07,0.192-0.104C113.725,55.466,113.66,55.501,113.596,55.536z"/>
		<path fill="#2CA0DA" d="M112.497,56.061c0.356-0.152,0.708-0.319,1.055-0.502C113.205,55.741,112.854,55.908,112.497,56.061z"/>
	</g>
</g>
<g>
	<g>
		<path fill="#EF5026" d="M34.072,53.744c-0.301,0.255-0.609,0.495-0.922,0.722c-1.267,0.9-2.597,1.579-3.991,2.038
			c-0.556,0.179-1.125,0.324-1.707,0.434v0.011c-0.918,0.179-1.862,0.268-2.831,0.268c-4.265,0-7.909-1.599-10.931-4.798
			c-2.999-3.2-4.499-7.054-4.499-11.564c0-4.533,1.5-8.398,4.499-11.597c3.022-3.177,6.666-4.766,10.931-4.766
			c3.133,0,5.999,0.922,8.599,2.765V24.49c0.002-0.001,0.003-0.001,0.005-0.001c3.754,0.02,6.792,3.068,6.792,6.828h0.001v25.568
			c3.813-4.129,6.166-9.785,6.166-16.024c0-12.646-9.661-22.898-21.578-22.898c-11.918,0-21.579,10.252-21.579,22.898
			c0,12.647,9.661,22.899,21.579,22.899c5.884,0,11.217-2.5,15.11-6.554C37.292,57.102,35.198,55.733,34.072,53.744z"/>
		<path fill="#EF5026" d="M24.622,31.288c-2.378,0-4.411,0.934-6.099,2.799c-1.666,1.867-2.499,4.122-2.499,6.766
			c0,2.622,0.833,4.865,2.499,6.731c1.688,1.867,3.721,2.799,6.099,2.799c2.354,0,4.376-0.933,6.065-2.799
			c1.688-1.866,2.533-4.11,2.533-6.731c0-2.644-0.844-4.899-2.533-6.766C28.998,32.222,26.976,31.288,24.622,31.288z"/>
	</g>
</g>
<path fill="#2CA0DA" d="M89.388,44.92c-0.911-2.044-2.611-3.766-5.099-5.165c-1.177-0.711-2.81-1.289-4.899-1.733
	c-1.044-0.178-2.1-0.489-3.166-0.934c-2.133-0.844-3.2-1.866-3.2-3.066c0-0.6,0.278-1.232,0.833-1.899
	c0.911-0.845,2.133-1.278,3.666-1.3h0.433c0.06,0,0.118,0.001,0.176,0.001v0.001c0.604,0.039,1.156,0.202,1.657,0.36
	c0.951,0.3,1.721,0.73,2.313,1.249c2.123,1.783,5.212,2.157,7.765,0.708l0.004,0.008c0-0.001,0.001-0.001,0.002-0.002
	c0.035-0.242-0.19-0.848-0.677-1.816c-1.829-3.614-5.082-5.854-9.76-6.718c-0.349-0.074-0.604-0.11-0.795-0.124l-0.035-0.005
	c-0.163-0.015-0.288-0.025-0.475-0.026c-0.158-0.006-0.278-0.001-0.376-0.001h-0.033c-1.488,0-3.043,0.233-4.666,0.699
	c-1.31,0.377-2.61,1.033-3.899,1.966c-2.466,1.755-3.699,3.943-3.699,6.565v0.6c0,0.711,0.211,1.533,0.633,2.466
	c0.911,2.044,2.611,3.766,5.099,5.166c1.178,0.688,2.81,1.255,4.899,1.7c1.066,0.2,2.133,0.511,3.199,0.934
	c1.985,0.814,3.037,1.777,3.155,2.887c0.008,0.069,0.012,0.14,0.012,0.211c0,0.6-0.278,1.232-0.833,1.899
	c-0.912,0.845-2.133,1.277-3.666,1.3h-0.433c-0.06,0-0.118-0.001-0.176-0.002v-0.001c-0.604-0.039-1.155-0.202-1.657-0.36
	c-0.951-0.3-1.721-0.729-2.313-1.249c-2.123-1.782-5.212-2.158-7.764-0.708l-0.004-0.008c0,0.001-0.001,0.001-0.002,0.001
	c-0.036,0.242,0.19,0.849,0.677,1.817c1.829,3.614,5.082,5.854,9.761,6.718c0.348,0.074,0.603,0.111,0.794,0.124l0.035,0.005
	c0.163,0.015,0.288,0.025,0.474,0.026c0.158,0.006,0.278,0.001,0.376,0.001h0.033c1.488,0,3.043-0.233,4.666-0.7
	c1.31-0.377,2.61-1.033,3.899-1.966c2.466-1.754,3.699-3.943,3.699-6.565v-0.544v-0.088C90.021,46.664,89.81,45.854,89.388,44.92z"
	/>
<g>
	<g>
		<path fill="#2CA0DA" d="M147.665,54.447c0.044-0.032,0.089-0.064,0.134-0.097C147.754,54.383,147.709,54.415,147.665,54.447z"/>
		<path fill="#2CA0DA" d="M147.941,54.244c0.043-0.032,0.086-0.063,0.128-0.096C148.027,54.181,147.984,54.212,147.941,54.244z"/>
		<path fill="#2CA0DA" d="M147.387,54.641c0.046-0.032,0.093-0.064,0.139-0.096C147.48,54.577,147.434,54.609,147.387,54.641z"/>
		<path fill="#2CA0DA" d="M147.107,54.828c0.048-0.031,0.096-0.063,0.144-0.096C147.203,54.765,147.156,54.797,147.107,54.828z"/>
		<path fill="#2CA0DA" d="M148.778,53.576c0.03-0.027,0.061-0.052,0.091-0.078C148.839,53.524,148.809,53.549,148.778,53.576z"/>
		<path fill="#2CA0DA" d="M146.825,55.007c0.05-0.031,0.101-0.063,0.151-0.095C146.926,54.944,146.875,54.977,146.825,55.007z"/>
		<path fill="#2CA0DA" d="M154.53,40.82c0-0.889-0.066-1.8-0.2-2.733c-0.534-3.377-1.945-6.298-4.232-8.765
			c-2.266-2.443-4.988-3.977-8.165-4.599c-0.956-0.178-1.899-0.267-2.833-0.267c-3.777,0-7.109,1.3-9.998,3.899
			c-2.844,2.6-4.577,5.843-5.199,9.731c-0.133,0.933-0.2,1.844-0.2,2.733c0,0.889,0.066,1.799,0.2,2.733
			c0.087,0.542,0.2,1.073,0.334,1.594c0.483,1.871,1.271,3.605,2.365,5.204c0.277,0.411,0.563,0.802,0.856,1.175
			c0.216,0.263,0.442,0.521,0.677,0.774c2.266,2.444,4.988,3.977,8.165,4.599c0.903,0.168,1.797,0.255,2.681,0.265
			c0.077,0.001,0.154,0.001,0.23,0.001c-0.026,0-0.052,0.001-0.079,0.001c1.26,0,2.469-0.146,3.629-0.434
			c-0.903,0.225-1.835,0.362-2.798,0.413c3.341-0.176,6.333-1.418,8.979-3.729c0.203-0.181,0.4-0.363,0.592-0.551
			c1.091-1.061,2.006-2.227,2.745-3.499c-2.312-2.101-5.67-2.316-8.197-0.742c-0.078,0.052-0.154,0.105-0.229,0.16
			c-1.384,1.027-2.913,1.555-4.59,1.581c-0.055-0.005-0.109-0.009-0.164-0.015c-1.956-0.044-3.688-0.7-5.199-1.966
			c-1.489-1.244-2.5-2.855-3.032-4.832h23.461C154.464,42.619,154.53,41.708,154.53,40.82z M130.869,38.087
			c0.533-2,1.555-3.633,3.065-4.899c1.534-1.289,3.255-1.933,5.166-1.933c0.777,0,1.522,0.111,2.233,0.333
			c3.11,0.911,5.121,3.077,6.032,6.499H130.869L130.869,38.087z"/>
		<path fill="#2CA0DA" d="M148.217,54.034c0.04-0.032,0.081-0.063,0.121-0.095C148.298,53.971,148.257,54.002,148.217,54.034z"/>
		<path fill="#2CA0DA" d="M148.494,53.813c0.037-0.03,0.074-0.06,0.111-0.091C148.568,53.752,148.531,53.782,148.494,53.813z"/>
		<path fill="#2CA0DA" d="M142.778,56.728c0.091-0.023,0.182-0.046,0.273-0.072C142.96,56.682,142.869,56.705,142.778,56.728z"/>
		<path fill="#2CA0DA" d="M146.541,55.18c0.053-0.032,0.106-0.064,0.159-0.096C146.647,55.116,146.594,55.148,146.541,55.18z"/>
		<path fill="#2CA0DA" d="M144.002,56.361c0.079-0.028,0.157-0.055,0.234-0.084C144.159,56.306,144.081,56.333,144.002,56.361z"/>
		<path fill="#2CA0DA" d="M144.299,56.254c0.078-0.029,0.156-0.059,0.234-0.09C144.456,56.195,144.377,56.225,144.299,56.254z"/>
		<path fill="#2CA0DA" d="M143.397,56.558c0.082-0.025,0.164-0.05,0.245-0.077C143.561,56.508,143.479,56.533,143.397,56.558z"/>
		<path fill="#2CA0DA" d="M143.088,56.646c0.086-0.024,0.171-0.048,0.257-0.073C143.26,56.598,143.175,56.623,143.088,56.646z"/>
		<path fill="#2CA0DA" d="M143.701,56.463c0.08-0.026,0.159-0.052,0.238-0.079C143.86,56.411,143.781,56.437,143.701,56.463z"/>
		<path fill="#2CA0DA" d="M146.254,55.344c0.057-0.032,0.115-0.065,0.171-0.098C146.369,55.279,146.312,55.313,146.254,55.344z"/>
		<path fill="#2CA0DA" d="M144.589,56.141c0.08-0.032,0.16-0.064,0.239-0.098C144.749,56.077,144.669,56.109,144.589,56.141z"/>
		<path fill="#2CA0DA" d="M145.966,55.502c0.064-0.035,0.128-0.07,0.191-0.105C146.094,55.433,146.03,55.468,145.966,55.502z"/>
		<path fill="#2CA0DA" d="M144.866,56.027c0.357-0.152,0.708-0.319,1.055-0.501C145.575,55.708,145.223,55.875,144.866,56.027z"/>
	</g>
</g>
</svg>
